<svg xmlns="http://www.w3.org/2000/svg" width="512" height="512" viewBox="0 0 512 512" data-svgdocument="" id="_eh2hlne6g_2" class="fl-svgdocument" x="0" y="0" style="overflow: hidden;" xmlns:inkscape="http://www.inkscape.org/namespaces/inkscape" xmlns:sodipodi="http://sodipodi.sourceforge.net/DTD/sodipodi-0.dtd" xmlns:xlink="http://www.w3.org/1999/xlink" xmlns:ns1="http://www.inkscape.org/namespaces/inkscape" xmlns:sketch="http://www.bohemiancoding.com/sketch/ns">
  <defs id="_eh2hlne6g_3" transform="matrix(0.9481950024983068, 0, 0, 0.9481950024983068, -28.441668659850635, -28.451094960212437)" />
  <g id="_eh2hlne6g_4" transform="matrix(0.8363080056545112, 0, 0, 0.8363080056545112, -42.673502334417144, 125.2293183014271)">
    <g id="_eh2hlne6g_5" transform="matrix(1.6019999980926514, 0, 0, 1.6019999980926514, 294.6553955078125, 0.7009999752044678)">
      <svg id="_eh2hlne6g_6" width="78.29999999999998" height="99.4" viewBox="10.899999999999999,0.19999999999998952,78.29999999999998,99.4">
        <defs id="_eh2hlne6g_7" fill="#0097cf" />
        <g id="_eh2hlne6g_8" fill="#fff" />
        <g id="_eh2hlne6g_9" fill="#fff" />
        <g id="_eh2hlne6g_10" fill="#fff">
          <path id="_eh2hlne6g_11" d="M78.9,88.1v-3.9h-3.6v-32h4.4v-6.3h-3.4c-0.9-13.7-11.8-24.6-25.5-25.6v-6.5h11.1l-3.3-4.3l3.3-4.3H50.7h-1.2h-2.7v15  c-13.7,1-24.6,11.9-25.5,25.6H18v6.3h6.8v32h-3.6v3.9h-5.3v6.6h68.3v-6.6H78.9z M38.4,84.2h-6.2v-32h6.2V84.2z M53.1,84.2h-7.3v-32  h7.3V84.2z M67.8,84.2h-7.3v-32h7.3V84.2z" stroke="none" fill="#fff" />
        </g>
      </svg>
    </g>
    <g id="_eh2hlne6g_12" transform="matrix(3.018199920654297, 0, 0, 1.179800033569336, 76.443603515625, 170.97140502929688)">
      <svg id="_eh2hlne6g_13" width="186.742" height="17.218999999999994" viewBox="-5,79.525,186.742,17.218999999999994">
        <defs id="_eh2hlne6g_14" fill="#3f444d" />
        <g id="_eh2hlne6g_15" fill="#fff" />
        <g id="_eh2hlne6g_16" fill="#fff" />
        <g id="_eh2hlne6g_17" fill="#fff">
          <rect id="_eh2hlne6g_18" y="84.525" width="176.742" height="7.219" stroke="none" fill="#fff" />
        </g>
      </svg>
    </g>
    <g id="_eh2hlne6g_19" transform="matrix(3.018199920654297, 0, 0, 0.8636000156402588, 76.443603515625, 160.65969848632812)">
      <svg id="_eh2hlne6g_20" width="186.742" height="17.218999999999994" viewBox="-5,79.525,186.742,17.218999999999994">
        <defs id="_eh2hlne6g_21" fill="#d41313" />
        <g id="_eh2hlne6g_22" fill="#fff" />
        <g id="_eh2hlne6g_23" fill="#fff" />
        <g id="_eh2hlne6g_24" fill="#fff">
          <rect id="_eh2hlne6g_25" y="84.525" width="176.742" height="7.219" stroke="none" fill="#fff" />
        </g>
      </svg>
    </g>
    <g id="_eh2hlne6g_26" transform="matrix(-3.018199920654297, 0, 0, -1.179800033569336, 637.8231811523438, 298.0285949707031)">
      <svg id="_eh2hlne6g_27" width="186.742" height="17.218999999999994" viewBox="-5,79.525,186.742,17.218999999999994">
        <defs id="_eh2hlne6g_28" fill="#3f444d" />
        <g id="_eh2hlne6g_29" fill="#fff" />
        <g id="_eh2hlne6g_30" fill="#fff" />
        <g id="_eh2hlne6g_31" fill="#fff">
          <rect id="_eh2hlne6g_32" y="84.525" width="176.742" height="7.219" stroke="none" fill="#fff" />
        </g>
      </svg>
    </g>
    <g id="_eh2hlne6g_33" transform="matrix(-3.018199920654297, 0, 0, -0.8636000156402588, 637.8231811523438, 308.3403015136719)">
      <svg id="_eh2hlne6g_34" width="186.742" height="17.218999999999994" viewBox="-5,79.525,186.742,17.218999999999994">
        <defs id="_eh2hlne6g_35" fill="#d41313" />
        <g id="_eh2hlne6g_36" fill="#fff" />
        <g id="_eh2hlne6g_37" fill="#fff" />
        <g id="_eh2hlne6g_38" fill="#fff">
          <rect id="_eh2hlne6g_39" y="84.525" width="176.742" height="7.219" stroke="none" fill="#fff" />
        </g>
      </svg>
    </g>
    <g id="_eh2hlne6g_40" transform="matrix(0.8458999991416931, 0, 0, 0.8939999938011169, 92.0020980834961, 187.19549560546875)">
      <svg id="_eh2hlne6g_41" width="630.078125" height="185" style="overflow: visible;">
        <defs id="_eh2hlne6g_42" fill="#3f444d" />
        <g id="_eh2hlne6g_43" transform="matrix(1, 0, 0, 1, 0, 93.75)" fill="#fff">
          <path text="People's Justice" text-anchor="start" font-size="100" letter-spacing="0" side="left" offset="0" dx="0" dy="0" space="preserve" href="" font-family="Fjalla One" font-scale="contain" x="0" y="0" fill="#fff" data-fl-textpath="" id="_eh2hlne6g_44" d="M 7.13 0L 7.13-83.4L 19.78-83.4Q 22.17-83.4  25.02-83.18Q 27.88-82.96  30.74-82.15Q 33.59-81.35  36.25-79.69Q 38.92-78.03  40.97-75.17Q 43.02-72.31  44.26-68.02Q 45.51-63.72  45.51-57.57L 45.51-57.57L 45.51-54.64Q 45.51-47.95  44.36-43.19Q 43.21-38.43  41.31-35.18Q 39.4-31.93  36.89-29.98Q 34.38-28.03  31.67-27.03Q 28.96-26.03  26.2-25.71Q 23.44-25.39  21-25.39L 21-25.39L 19.78-25.39L 19.78 0L 7.13 0ZM 19.78-34.67L 20.41-34.67Q 23.83-34.67  26.17-35.67Q 28.52-36.67  29.91-38.79Q 31.3-40.92  31.91-44.26Q 32.52-47.61  32.52-52.29L 32.52-52.29L 32.52-59.81Q 32.52-63.53  31.98-66.24Q 31.45-68.95  30.05-70.7Q 28.66-72.46  26.32-73.32Q 23.97-74.17  20.41-74.17L 20.41-74.17L 19.78-74.17L 19.78-34.67ZM 70.50921875 0.73L 70.50921875 0.73Q 66.15921875000001 0.73  62.81921875-0.88Q 59.469218749999996-2.49  57.179218750000004-5.91Q 54.87921875-9.33  53.70921875-14.67Q 52.53921875-20.02  52.53921875-27.54L 52.53921875-27.54L 52.53921875-40.23Q 52.53921875-46.63  53.48921875-51.2Q 54.43921875-55.76  55.97921875-58.86Q 57.51921875-61.96  59.54921875-63.77Q 61.56921875-65.58  63.719218749999996-66.53Q 65.86921875-67.48  67.98921874999999-67.75Q 70.11921875-68.02  71.91921875-68.02L 71.91921875-68.02Q 75.23921874999999-68.02  78.31921875-67.02Q 81.39921875-66.02  83.73921874999999-63.6Q 86.07921875-61.18  87.47921875-57.13Q 88.86921875-53.08  88.86921875-47.02L 88.86921875-47.02Q 88.86921875-44.97  88.74921875-42.87Q 88.61921875-40.77  88.42921874999999-38.75Q 88.22921875-36.72  87.91921875-34.81Q 87.59921875-32.91  87.25921875-31.3L 87.25921875-31.3L 64.93921875-31.3L 64.93921875-24.46Q 64.93921875-20.07  65.27921875-17.07Q 65.62921875-14.06  66.42921875-12.23Q 67.23921874999999-10.4  68.62921875-9.59Q 70.01921875-8.79  72.11921875-8.79L 72.11921875-8.79Q 73.23921874999999-8.79  74.31921875-9.25Q 75.38921875-9.72  76.19921875-10.79Q 76.99921875-11.87  77.48921874999999-13.65Q 77.97921875-15.43  77.97921875-18.07L 77.97921875-18.07L 77.97921875-20.17L 88.27921875-20.17L 88.27921875-17.58Q 88.27921875-8.01  83.71921875000001-3.64Q 79.14921875 0.73  70.50921875 0.73ZM 64.93921875-39.6L 77.33921875-39.6Q 77.38921875-40.14  77.43921875-41.04Q 77.48921874999999-41.94  77.51921875-42.92Q 77.53921875-43.9  77.53921875-44.85Q 77.53921875-45.8  77.53921875-46.48L 77.53921875-46.48Q 77.53921875-53.13  75.97921875-56.05Q 74.40921875000001-58.98  71.33921875-58.98L 71.33921875-58.98Q 69.72921875-58.98  68.50921875-58.23Q 67.28921875-57.47  66.49921875-55.69Q 65.71921875-53.91  65.32921875-50.98Q 64.93921875-48.05  64.93921875-43.7L 64.93921875-43.7L 64.93921875-39.6ZM 116.25874999999999 0.73L 116.25874999999999 0.73Q 114.10875 0.73  111.88875 0.39Q 109.66875 0.05  107.58875-1.03Q 105.51875-2.1  103.68875-4.1Q 101.85875-6.1  100.48875-9.38Q 99.11875-12.65  98.33875-17.43Q 97.55875-22.22  97.55875-28.86L 97.55875-28.86L 97.55875-39.4Q 97.55875-45.95  98.36875-50.61Q 99.16875-55.27  100.55875-58.45Q 101.94875-61.62  103.80875-63.5Q 105.66875-65.38  107.73875-66.38Q 109.81875-67.38  112.00874999999999-67.7Q 114.20875-68.02  116.30875-68.02L 116.30875-68.02Q 118.30875-68.02  120.45875-67.72Q 122.60875-67.43  124.65875-66.48Q 126.70875000000001-65.53  128.53875-63.65Q 130.36875-61.77  131.75875-58.59Q 133.15875-55.42  133.95875-50.71Q 134.76875-46  134.76875-39.4L 134.76875-39.4L 134.76875-28.86Q 134.76875-22.31  133.93875-17.58Q 133.10875-12.84  131.68875-9.57Q 130.26875-6.3  128.41875-4.27Q 126.55875-2.25  124.50874999999999-1.12Q 122.45875 0  120.33875 0.37Q 118.20875 0.73  116.25874999999999 0.73ZM 116.35875-8.79L 116.35875-8.79Q 118.01875-8.79  119.16875-9.64Q 120.30875-10.5  121.01875-12.45Q 121.72875-14.4  122.04875-17.6Q 122.35875-20.8  122.35875-25.54L 122.35875-25.54L 122.35875-42.09Q 122.35875-46.83  122.04875-50.05Q 121.72875-53.27  121.01875-55.25Q 120.30875-57.23  119.16875-58.11Q 118.01875-58.98  116.35875-58.98L 116.35875-58.98Q 114.59875-58.98  113.39875-58.11Q 112.20875-57.23  111.42875000000001-55.25Q 110.64875-53.27  110.29875-50.05Q 109.95875-46.83  109.95875-42.09L 109.95875-42.09L 109.95875-25.54Q 109.95875-20.8  110.29875-17.6Q 110.64875-14.4  111.42875000000001-12.45Q 112.20875-10.5  113.39875-9.64Q 114.59875-8.79  116.35875-8.79ZM 157.66546875-4.44L 158.05546875 3.81L 158.05546875 21.73L 145.70546875 21.73L 145.70546875-67.24L 155.37546875-67.24L 156.49546875-60.16Q 157.32546875-61.52  158.47546875-62.94Q 159.61546875-64.36  161.15546875-65.45Q 162.69546875-66.55  164.62546875-67.26Q 166.55546875-67.97  168.94546875-67.97L 168.94546875-67.97Q 169.97546875-67.97  171.41546875-67.77Q 172.85546875-67.58  174.38546875-66.8Q 175.92546875-66.02  177.46546875-64.48Q 179.00546875-62.94  180.19546875-60.25Q 181.39546875-57.57  182.15546875-53.56Q 182.90546875-49.56  182.90546875-43.85L 182.90546875-43.85L 182.90546875-23.49Q 182.90546875-17.77  182.15546875-13.77Q 181.39546875-9.77  180.17546875-7.08Q 178.95546875-4.39  177.39546875-2.83Q 175.82546875-1.27  174.21546875-0.49Q 172.60546875 0.29  171.09546875 0.51Q 169.57546875 0.73  168.45546875 0.73L 168.45546875 0.73Q 164.55546875 0.73  161.93546874999998-0.78Q 159.32546875-2.29  157.66546875-4.44L 157.66546875-4.44ZM 158.05546875-54.35L 158.05546875-13.72Q 158.44546875-12.74  159.00546875-11.87Q 159.56546875-10.99  160.32546875-10.3Q 161.08546875-9.62  162.03546875-9.2Q 162.98546875-8.79  164.25546875-8.79L 164.25546875-8.79Q 165.62546875-8.79  166.74546875-9.3Q 167.87546875-9.81  168.70546875-11.16Q 169.53546875-12.5  169.99546875-14.89Q 170.45546875-17.29  170.45546875-21.04L 170.45546875-21.04L 170.45546875-46.78Q 170.45546875-50.54  169.99546875-52.91Q 169.53546875-55.27  168.72546875-56.64Q 167.91546875-58.01  166.79546875-58.5Q 165.67546875-58.98  164.30546875-58.98L 164.30546875-58.98Q 161.96546875-58.98  160.47546875-57.59Q 158.98546875-56.2  158.05546875-54.35L 158.05546875-54.35ZM 194.2353125 0L 194.2353125-88.82L 206.5953125-88.82L 206.5953125 0L 194.2353125 0ZM 235.694765625 0.73L 235.694765625 0.73Q 231.344765625 0.73  228.004765625-0.88Q 224.654765625-2.49  222.364765625-5.91Q 220.064765625-9.33  218.894765625-14.67Q 217.724765625-20.02  217.724765625-27.54L 217.724765625-27.54L 217.724765625-40.23Q 217.724765625-46.63  218.674765625-51.2Q 219.624765625-55.76  221.164765625-58.86Q 222.704765625-61.96  224.734765625-63.77Q 226.754765625-65.58  228.904765625-66.53Q 231.05476562500002-67.48  233.174765625-67.75Q 235.30476562500002-68.02  237.104765625-68.02L 237.104765625-68.02Q 240.424765625-68.02  243.504765625-67.02Q 246.584765625-66.02  248.924765625-63.6Q 251.264765625-61.18  252.664765625-57.13Q 254.05476562500002-53.08  254.05476562500002-47.02L 254.05476562500002-47.02Q 254.05476562500002-44.97  253.934765625-42.87Q 253.80476562500002-40.77  253.614765625-38.75Q 253.414765625-36.72  253.104765625-34.81Q 252.784765625-32.91  252.444765625-31.3L 252.444765625-31.3L 230.124765625-31.3L 230.124765625-24.46Q 230.124765625-20.07  230.46476562499998-17.07Q 230.814765625-14.06  231.614765625-12.23Q 232.424765625-10.4  233.814765625-9.59Q 235.204765625-8.79  237.30476562500002-8.79L 237.30476562500002-8.79Q 238.424765625-8.79  239.504765625-9.25Q 240.574765625-9.72  241.384765625-10.79Q 242.184765625-11.87  242.674765625-13.65Q 243.164765625-15.43  243.164765625-18.07L 243.164765625-18.07L 243.164765625-20.17L 253.46476562499998-20.17L 253.46476562499998-17.58Q 253.46476562499998-8.01  248.904765625-3.64Q 244.334765625 0.73  235.694765625 0.73ZM 230.124765625-39.6L 242.524765625-39.6Q 242.574765625-40.14  242.624765625-41.04Q 242.674765625-41.94  242.704765625-42.92Q 242.724765625-43.9  242.724765625-44.85Q 242.724765625-45.8  242.724765625-46.48L 242.724765625-46.48Q 242.724765625-53.13  241.164765625-56.05Q 239.594765625-58.98  236.524765625-58.98L 236.524765625-58.98Q 234.914765625-58.98  233.694765625-58.23Q 232.474765625-57.47  231.684765625-55.69Q 230.904765625-53.91  230.514765625-50.98Q 230.124765625-48.05  230.124765625-43.7L 230.124765625-43.7L 230.124765625-39.6ZM 269.434296875-57.62L 268.214296875-91.6L 280.374296875-91.6L 279.344296875-57.62L 269.434296875-57.62ZM 294.1396875-14.06L 294.1396875-14.06Q 294.1396875-16.26  294.5596875-18.31Q 294.9696875-20.36  295.3596875-21.58L 295.3596875-21.58L 304.0496875-21.58Q 304.0496875-17.92  304.4196875-15.45Q 304.7896875-12.99  305.6196875-11.52Q 306.4496875-10.06  307.8396875-9.42Q 309.2296875-8.79  311.2296875-8.79L 311.2296875-8.79Q 314.0096875-8.79  315.2796875-10.35Q 316.5496875-11.91  316.5496875-13.96L 316.5496875-13.96Q 316.5496875-15.04  316.2596875-16.02Q 315.9696875-16.99  315.4296875-17.99Q 314.8896875-18.99  314.1096875-20.02Q 313.3296875-21.04  312.3496875-22.27L 312.3496875-22.27L 303.3196875-32.91Q 301.5596875-35.11  299.9296875-37.38Q 298.2896875-39.65  297.0496875-42.07Q 295.7996875-44.48  295.0396875-47.12Q 294.2896875-49.76  294.2896875-52.69L 294.2896875-52.69Q 294.2896875-56.59  295.6296875-59.47Q 296.9696875-62.35  299.2396875-64.26Q 301.5096875-66.16  304.4896875-67.09Q 307.4696875-68.02  310.7896875-68.02L 310.7896875-68.02Q 314.4496875-68.02  317.3796875-67.14Q 320.3096875-66.26  322.4096875-64.5Q 324.5096875-62.74  325.6396875-60.13Q 326.7596875-57.52  326.7596875-54.05L 326.7596875-54.05Q 326.7596875-51.71  326.33968749999997-49.51Q 325.9296875-47.31  325.5396875-45.75L 325.5396875-45.75L 316.9896875-45.75Q 316.9396875-49.07  316.6996875-51.56Q 316.4596875-54.05  315.7996875-55.69Q 315.1396875-57.32  313.9896875-58.15Q 312.8396875-58.98  310.9896875-58.98L 310.9896875-58.98Q 309.3796875-58.98  308.2996875-58.47Q 307.2296875-57.96  306.5696875-57.13Q 305.9096875-56.3  305.6396875-55.27Q 305.3696875-54.25  305.3696875-53.17L 305.3696875-53.17Q 305.3696875-50.83  306.4896875-48.83Q 307.6196875-46.83  309.4696875-44.48L 309.4696875-44.48L 319.3396875-32.91Q 320.4096875-31.59  321.8296875-29.71Q 323.2396875-27.83  324.5096875-25.56Q 325.7796875-23.29  326.6596875-20.61Q 327.5396875-17.92  327.5396875-14.99L 327.5396875-14.99Q 327.5396875-11.43  326.4196875-8.52Q 325.2896875-5.62  323.0996875-3.56Q 320.8996875-1.51  317.6996875-0.39Q 314.4996875 0.73  310.3996875 0.73L 310.3996875 0.73Q 307.0296875 0.73  304.0496875-0.02Q 301.0696875-0.78  298.8796875-2.51Q 296.6796875-4.25  295.4096875-7.08Q 294.1396875-9.91  294.1396875-14.06ZM 369.434921875 0.78L 369.434921875 0.78Q 364.744921875 0.78  361.574921875-0.68Q 358.394921875-2.15  356.464921875-4.66Q 354.544921875-7.18  353.714921875-10.55Q 352.884921875-13.92  352.884921875-17.68L 352.884921875-17.68Q 352.884921875-20.31  353.224921875-23.61Q 353.564921875-26.9  354.244921875-30.22L 354.244921875-30.22L 364.354921875-30.22L 364.204921875-20.07Q 364.204921875-16.85  364.504921875-14.67Q 364.794921875-12.5  365.404921875-11.21Q 366.014921875-9.91  366.964921875-9.35Q 367.924921875-8.79  369.284921875-8.79L 369.284921875-8.79Q 370.414921875-8.79  371.314921875-9.23Q 372.214921875-9.67  372.854921875-10.77Q 373.484921875-11.87  373.824921875-13.75Q 374.174921875-15.63  374.174921875-18.46L 374.174921875-18.46L 374.314921875-83.4L 386.964921875-83.4L 386.964921875-20.21Q 386.964921875-13.77  385.494921875-9.67Q 384.034921875-5.57  381.564921875-3.25Q 379.104921875-0.93  375.954921875-0.07Q 372.804921875 0.78  369.434921875 0.78ZM 400.248828125-15.72L 400.248828125-67.24L 412.598828125-67.24L 412.598828125-16.7Q 412.598828125-12.26  413.968828125-10.52Q 415.328828125-8.79  417.968828125-8.79L 417.968828125-8.79Q 419.828828125-8.79  421.578828125-9.81Q 423.338828125-10.84  424.758828125-12.74L 424.758828125-12.74L 424.758828125-67.24L 437.108828125-67.24L 437.108828125 0L 427.688828125 0L 426.468828125-7.18L 426.418828125-7.18Q 424.948828125-4.88  423.318828125-3.34Q 421.678828125-1.81  419.898828125-0.9Q 418.118828125 0  416.258828125 0.39Q 414.408828125 0.78  412.548828125 0.78L 412.548828125 0.78Q 406.638828125 0.78  403.438828125-3.32Q 400.248828125-7.42  400.248828125-15.72L 400.248828125-15.72ZM 447.36234375-14.06L 447.36234375-14.06Q 447.36234375-16.26  447.78234375-18.31Q 448.19234375-20.36  448.58234375-21.58L 448.58234375-21.58L 457.27234375-21.58Q 457.27234375-17.92  457.64234375-15.45Q 458.01234375-12.99  458.84234375-11.52Q 459.67234375-10.06  461.06234375-9.42Q 462.45234375-8.79  464.45234375-8.79L 464.45234375-8.79Q 467.23234375-8.79  468.50234375-10.35Q 469.77234375-11.91  469.77234375-13.96L 469.77234375-13.96Q 469.77234375-15.04  469.48234375-16.02Q 469.19234375-16.99  468.65234375-17.99Q 468.11234375-18.99  467.33234375-20.02Q 466.55234375-21.04  465.57234375-22.27L 465.57234375-22.27L 456.54234375-32.91Q 454.78234375-35.11  453.15234375-37.38Q 451.51234375-39.65  450.27234375-42.07Q 449.02234375-44.48  448.26234375-47.12Q 447.51234375-49.76  447.51234375-52.69L 447.51234375-52.69Q 447.51234375-56.59  448.85234375-59.47Q 450.19234375-62.35  452.46234375-64.26Q 454.73234375-66.16  457.71234375-67.09Q 460.69234375-68.02  464.01234375-68.02L 464.01234375-68.02Q 467.67234375-68.02  470.60234375-67.14Q 473.53234375-66.26  475.63234375-64.5Q 477.73234375-62.74  478.86234375-60.13Q 479.98234375-57.52  479.98234375-54.05L 479.98234375-54.05Q 479.98234375-51.71  479.56234374999997-49.51Q 479.15234375-47.31  478.76234375-45.75L 478.76234375-45.75L 470.21234375-45.75Q 470.16234375-49.07  469.92234375-51.56Q 469.68234375-54.05  469.02234375-55.69Q 468.36234375-57.32  467.21234375-58.15Q 466.06234375-58.98  464.21234375-58.98L 464.21234375-58.98Q 462.60234375-58.98  461.52234375-58.47Q 460.45234375-57.96  459.79234375-57.13Q 459.13234375-56.3  458.86234375-55.27Q 458.59234375-54.25  458.59234375-53.17L 458.59234375-53.17Q 458.59234375-50.83  459.71234375-48.83Q 460.84234375-46.83  462.69234375-44.48L 462.69234375-44.48L 472.56234375-32.91Q 473.63234375-31.59  475.05234375-29.71Q 476.46234375-27.83  477.73234375-25.56Q 479.00234375-23.29  479.88234375-20.61Q 480.76234375-17.92  480.76234375-14.99L 480.76234375-14.99Q 480.76234375-11.43  479.64234375-8.52Q 478.51234375-5.62  476.32234375-3.56Q 474.12234375-1.51  470.92234375-0.39Q 467.72234375 0.73  463.62234375 0.73L 463.62234375 0.73Q 460.25234375 0.73  457.27234375-0.02Q 454.29234375-0.78  452.10234375-2.51Q 449.90234375-4.25  448.63234375-7.08Q 447.36234375-9.91  447.36234375-14.06ZM 491.890859375-16.75L 491.890859375-58.45L 486.670859375-58.45L 486.670859375-67.24L 492.970859375-67.24L 495.460859375-84.67L 504.250859375-84.67L 504.250859375-67.24L 514.990859375-67.24L 514.990859375-58.45L 504.250859375-58.45L 504.250859375-15.67Q 504.250859375-13.48  504.660859375-12.13Q 505.080859375-10.79  505.810859375-10.03Q 506.540859375-9.28  507.520859375-9.03Q 508.500859375-8.79  509.570859375-8.79L 509.570859375-8.79Q 511.380859375-8.79  512.770859375-9.23Q 514.160859375-9.67  515.430859375-10.45L 515.430859375-10.45L 515.430859375-3.61Q 514.350859375-2.29  513.110859375-1.46Q 511.860859375-0.63  510.550859375-0.12Q 509.230859375 0.39  507.860859375 0.59Q 506.490859375 0.78  505.170859375 0.78L 505.170859375 0.78Q 502.590859375 0.78  500.190859375 0.1Q 497.800859375-0.59  495.950859375-2.51Q 494.090859375-4.44  492.990859375-7.86Q 491.890859375-11.28  491.890859375-16.75L 491.890859375-16.75ZM 530.02984375-76.86L 530.02984375-76.86Q 526.60984375-76.86  524.62984375-78.91Q 522.65984375-80.96  522.65984375-84.91L 522.65984375-84.91Q 522.65984375-87.11  523.16984375-88.6Q 523.67984375-90.09  524.62984375-90.99Q 525.58984375-91.89  526.94984375-92.31Q 528.31984375-92.72  530.07984375-92.72L 530.07984375-92.72Q 533.73984375-92.72  535.63984375-90.87Q 537.54984375-89.01  537.54984375-84.91L 537.54984375-84.91Q 537.54984375-81.1  535.61984375-78.98Q 533.68984375-76.86  530.02984375-76.86ZM 523.62984375 0L 523.62984375-67.24L 535.98984375-67.24L 535.98984375 0L 523.62984375 0ZM 564.549296875 0.73L 564.549296875 0.73Q 556.059296875 0.73  551.589296875-6.25Q 547.119296875-13.23  547.119296875-27.54L 547.119296875-27.54L 547.119296875-40.23Q 547.119296875-46.63  548.049296875-51.2Q 548.979296875-55.76  550.509296875-58.86Q 552.049296875-61.96  554.029296875-63.77Q 556.009296875-65.58  558.109296875-66.53Q 560.209296875-67.48  562.259296875-67.75Q 564.309296875-68.02  566.019296875-68.02L 566.019296875-68.02Q 569.429296875-68.02  572.269296875-67.11Q 575.099296875-66.21  577.149296875-64.38Q 579.199296875-62.55  580.319296875-59.77Q 581.449296875-56.98  581.449296875-53.22L 581.449296875-53.22Q 581.449296875-50.88  581.229296875-49.19Q 581.009296875-47.51  580.619296875-45.95L 580.619296875-45.95L 570.749296875-45.95L 570.749296875-48.19Q 570.749296875-53.27  569.559296875-56.13Q 568.359296875-58.98  565.629296875-58.98L 565.629296875-58.98Q 564.109296875-58.98  562.989296875-58.28Q 561.869296875-57.57  561.109296875-55.86Q 560.349296875-54.15  559.989296875-51.27Q 559.619296875-48.39  559.619296875-44.04L 559.619296875-44.04L 559.619296875-24.95Q 559.619296875-20.56  559.909296875-17.48Q 560.209296875-14.4  560.939296875-12.48Q 561.669296875-10.55  562.889296875-9.67Q 564.109296875-8.79  565.919296875-8.79L 565.919296875-8.79Q 566.849296875-8.79  567.729296875-9.25Q 568.599296875-9.72  569.259296875-10.79Q 569.919296875-11.87  570.339296875-13.65Q 570.749296875-15.43  570.749296875-18.07L 570.749296875-18.07L 570.749296875-20.17L 581.399296875-20.17L 581.399296875-17.58Q 581.399296875-8.01  577.169296875-3.64Q 572.949296875 0.73  564.549296875 0.73ZM 607.61859375 0.73L 607.61859375 0.73Q 603.26859375 0.73  599.92859375-0.88Q 596.57859375-2.49  594.28859375-5.91Q 591.98859375-9.33  590.81859375-14.67Q 589.64859375-20.02  589.64859375-27.54L 589.64859375-27.54L 589.64859375-40.23Q 589.64859375-46.63  590.59859375-51.2Q 591.54859375-55.76  593.08859375-58.86Q 594.62859375-61.96  596.65859375-63.77Q 598.67859375-65.58  600.82859375-66.53Q 602.97859375-67.48  605.09859375-67.75Q 607.22859375-68.02  609.02859375-68.02L 609.02859375-68.02Q 612.34859375-68.02  615.42859375-67.02Q 618.50859375-66.02  620.84859375-63.6Q 623.18859375-61.18  624.58859375-57.13Q 625.97859375-53.08  625.97859375-47.02L 625.97859375-47.02Q 625.97859375-44.97  625.85859375-42.87Q 625.72859375-40.77  625.53859375-38.75Q 625.33859375-36.72  625.02859375-34.81Q 624.70859375-32.91  624.36859375-31.3L 624.36859375-31.3L 602.04859375-31.3L 602.04859375-24.46Q 602.04859375-20.07  602.38859375-17.07Q 602.73859375-14.06  603.53859375-12.23Q 604.34859375-10.4  605.73859375-9.59Q 607.12859375-8.79  609.22859375-8.79L 609.22859375-8.79Q 610.34859375-8.79  611.42859375-9.25Q 612.49859375-9.72  613.30859375-10.79Q 614.10859375-11.87  614.59859375-13.65Q 615.08859375-15.43  615.08859375-18.07L 615.08859375-18.07L 615.08859375-20.17L 625.38859375-20.17L 625.38859375-17.58Q 625.38859375-8.01  620.82859375-3.64Q 616.25859375 0.73  607.61859375 0.73ZM 602.04859375-39.6L 614.44859375-39.6Q 614.49859375-40.14  614.54859375-41.04Q 614.59859375-41.94  614.62859375-42.92Q 614.64859375-43.9  614.64859375-44.85Q 614.64859375-45.8  614.64859375-46.48L 614.64859375-46.48Q 614.64859375-53.13  613.08859375-56.05Q 611.51859375-58.98  608.44859375-58.98L 608.44859375-58.98Q 606.83859375-58.98  605.61859375-58.23Q 604.39859375-57.47  603.60859375-55.69Q 602.82859375-53.91  602.43859375-50.98Q 602.04859375-48.05  602.04859375-43.7L 602.04859375-43.7L 602.04859375-39.6Z"></path>
        </g>
      </svg>
    </g>
  </g>
</svg>